<?xml version="1.0" encoding="utf-8"?>
<!-- Generator: Adobe Illustrator 16.0.0, SVG Export Plug-In . SVG Version: 6.00 Build 0)  -->
<!DOCTYPE svg PUBLIC "-//W3C//DTD SVG 1.1//EN" "http://www.w3.org/Graphics/SVG/1.1/DTD/svg11.dtd">
<svg version="1.1" id="Layer_1" xmlns="http://www.w3.org/2000/svg" xmlns:xlink="http://www.w3.org/1999/xlink" x="0px" y="0px"
	 width="612px" height="792px" viewBox="0 0 612 792" enable-background="new 0 0 612 792" xml:space="preserve">
<g>
	<g>
		
			<radialGradient id="SVGID_1_" cx="670.6387" cy="293.291" r="49.1127" gradientTransform="matrix(-0.9622 -0.2722 -0.2722 0.9622 981.4629 232.1069)" gradientUnits="userSpaceOnUse">
			<stop  offset="0" style="stop-color:#FFCE06"/>
			<stop  offset="0.9946" style="stop-color:#FAA21B"/>
		</radialGradient>
		<polygon fill="url(#SVGID_1_)" points="268.52,332.61 286.959,373.583 285.901,382.894 291.581,389.542 290.879,392.019 
			272.635,381.346 218.818,285.944 221.8,271.508 		"/>
	</g>
	<g>
		
			<radialGradient id="SVGID_2_" cx="711.5215" cy="267.7275" r="66.7232" gradientTransform="matrix(-0.9622 -0.2722 -0.2722 0.9622 981.4629 232.1069)" gradientUnits="userSpaceOnUse">
			<stop  offset="0" style="stop-color:#FFCE06"/>
			<stop  offset="0.9946" style="stop-color:#FAA21B"/>
		</radialGradient>
		<polyline fill="url(#SVGID_2_)" points="269.256,378.813 215.237,285.613 219.613,267.481 178.666,213.263 182.559,262.297 
			265.524,376.971 		"/>
	</g>
	<g>
		
			<radialGradient id="SVGID_3_" cx="708.957" cy="361.9355" r="57.6414" gradientTransform="matrix(-0.9953 -0.0968 -0.0968 0.9953 956.9531 81.3491)" gradientUnits="userSpaceOnUse">
			<stop  offset="0" style="stop-color:#FFCE06"/>
			<stop  offset="0.9946" style="stop-color:#FAA21B"/>
		</radialGradient>
		<polygon fill="url(#SVGID_3_)" points="283.15,414.133 268.755,419.127 232.635,413.686 221.872,389.695 158.941,348.853 
			150.051,325.449 241.146,378.373 264.801,403.414 		"/>
	</g>
	<g>
		
			<radialGradient id="SVGID_4_" cx="730.5811" cy="375.2251" r="30.2274" gradientTransform="matrix(-0.9953 -0.0968 -0.0968 0.9953 956.9531 81.3491)" gradientUnits="userSpaceOnUse">
			<stop  offset="0" style="stop-color:#FFCE06"/>
			<stop  offset="0.9946" style="stop-color:#FAA21B"/>
		</radialGradient>
		<polygon fill="url(#SVGID_4_)" points="225.442,412.48 210.207,396.885 167.534,370.095 161.523,355.702 218.931,391.746 		"/>
	</g>
	<g>
		
			<radialGradient id="SVGID_5_" cx="698.8877" cy="440.7764" r="39.6406" gradientTransform="matrix(-1 0 0 1 925.1191 0)" gradientUnits="userSpaceOnUse">
			<stop  offset="0" style="stop-color:#FFCE06"/>
			<stop  offset="0.9946" style="stop-color:#FAA21B"/>
		</radialGradient>
		<polygon fill="url(#SVGID_5_)" points="280.998,432.34 250.28,428.803 171.465,452.75 250.785,447.396 		"/>
	</g>
	<g>
		
			<radialGradient id="SVGID_6_" cx="699.8848" cy="481.9268" r="26.5443" gradientTransform="matrix(-1 0 0 1 925.1191 0)" gradientUnits="userSpaceOnUse">
			<stop  offset="0" style="stop-color:#FFCE06"/>
			<stop  offset="0.9946" style="stop-color:#FAA21B"/>
		</radialGradient>
		<polygon fill="url(#SVGID_6_)" points="250.193,453.887 235.541,460.354 202.398,496.023 200.275,509.967 249.484,463.184 		"/>
	</g>
	<g>
		
			<radialGradient id="SVGID_7_" cx="689.9951" cy="496.5303" r="60.6074" gradientTransform="matrix(-1 0 0 1 925.1191 0)" gradientUnits="userSpaceOnUse">
			<stop  offset="0" style="stop-color:#FFCE06"/>
			<stop  offset="0.9946" style="stop-color:#FAA21B"/>
		</radialGradient>
		<polygon fill="url(#SVGID_7_)" points="298.783,441.461 291.709,439.137 254.322,454.898 253.716,465.813 171.465,553.924 
			269.377,474.502 		"/>
	</g>
	<g>
		
			<radialGradient id="SVGID_8_" cx="654.8311" cy="509.9688" r="50.6909" gradientTransform="matrix(-1 0 0 1 925.1191 0)" gradientUnits="userSpaceOnUse">
			<stop  offset="0" style="stop-color:#FFCE06"/>
			<stop  offset="0.9946" style="stop-color:#FAA21B"/>
		</radialGradient>
		<polygon fill="url(#SVGID_8_)" points="241.793,575.75 241.793,559.076 271.955,474.805 298.783,444.188 283.627,489.658 		"/>
	</g>
	<g>
		
			<radialGradient id="SVGID_9_" cx="1033.5244" cy="396.001" r="49.1122" gradientTransform="matrix(0.9622 -0.2722 0.2722 0.9622 -746.123 232.1069)" gradientUnits="userSpaceOnUse">
			<stop  offset="0" style="stop-color:#FFCE06"/>
			<stop  offset="0.9946" style="stop-color:#FAA21B"/>
		</radialGradient>
		<polygon fill="url(#SVGID_9_)" points="343.947,332.661 325.508,373.633 326.565,382.944 320.885,389.592 321.586,392.068 
			339.832,381.397 393.648,285.995 390.667,271.559 		"/>
	</g>
	<g>
		
			<radialGradient id="SVGID_10_" cx="1074.4072" cy="370.4385" r="66.7234" gradientTransform="matrix(0.9622 -0.2722 0.2722 0.9622 -746.123 232.1069)" gradientUnits="userSpaceOnUse">
			<stop  offset="0" style="stop-color:#FFCE06"/>
			<stop  offset="0.9946" style="stop-color:#FAA21B"/>
		</radialGradient>
		<polyline fill="url(#SVGID_10_)" points="343.211,378.865 397.229,285.665 392.853,267.531 433.8,213.313 429.908,262.347 
			346.942,377.022 		"/>
	</g>
	<g>
		
			<radialGradient id="SVGID_11_" cx="1084.3105" cy="398.4941" r="57.6411" gradientTransform="matrix(0.9953 -0.0968 0.0968 0.9953 -721.6152 81.3491)" gradientUnits="userSpaceOnUse">
			<stop  offset="0" style="stop-color:#FFCE06"/>
			<stop  offset="0.9946" style="stop-color:#FAA21B"/>
		</radialGradient>
		<polygon fill="url(#SVGID_11_)" points="329.316,414.184 343.712,419.178 379.832,413.736 390.596,389.746 453.525,348.903 
			462.416,325.5 371.32,378.421 347.664,403.465 		"/>
	</g>
	<g>
		
			<radialGradient id="SVGID_12_" cx="1106.8633" cy="413.3672" r="30.227" gradientTransform="matrix(0.9953 -0.0968 0.0968 0.9953 -721.6152 81.3491)" gradientUnits="userSpaceOnUse">
			<stop  offset="0" style="stop-color:#FFCE06"/>
			<stop  offset="0.9946" style="stop-color:#FAA21B"/>
		</radialGradient>
		<polygon fill="url(#SVGID_12_)" points="388.102,414.02 403.336,398.424 446.01,371.632 452.02,357.24 394.613,393.282 		"/>
	</g>
	<g>
		
			<radialGradient id="SVGID_13_" cx="1076.0156" cy="440.8262" r="39.6407" gradientTransform="matrix(1 0 0 1 -689.7813 0)" gradientUnits="userSpaceOnUse">
			<stop  offset="0" style="stop-color:#FFCE06"/>
			<stop  offset="0.9946" style="stop-color:#FAA21B"/>
		</radialGradient>
		<polygon fill="url(#SVGID_13_)" points="331.469,432.391 362.186,428.852 441.001,452.801 361.68,447.447 		"/>
	</g>
	<g>
		
			<radialGradient id="SVGID_14_" cx="1077.0137" cy="481.9785" r="26.5443" gradientTransform="matrix(1 0 0 1 -689.7813 0)" gradientUnits="userSpaceOnUse">
			<stop  offset="0" style="stop-color:#FFCE06"/>
			<stop  offset="0.9946" style="stop-color:#FAA21B"/>
		</radialGradient>
		<polygon fill="url(#SVGID_14_)" points="362.274,453.938 376.925,460.404 410.068,496.074 412.19,510.02 362.98,463.234 		"/>
	</g>
	<g>
		
			<radialGradient id="SVGID_15_" cx="1067.123" cy="496.5801" r="60.6079" gradientTransform="matrix(1 0 0 1 -689.7813 0)" gradientUnits="userSpaceOnUse">
			<stop  offset="0" style="stop-color:#FFCE06"/>
			<stop  offset="0.9946" style="stop-color:#FAA21B"/>
		</radialGradient>
		<polygon fill="url(#SVGID_15_)" points="313.684,441.51 320.757,439.186 358.145,454.949 358.751,465.863 441.001,553.975 
			343.088,474.553 		"/>
	</g>
	<g>
		
			<radialGradient id="SVGID_16_" cx="1031.959" cy="510.0195" r="50.6909" gradientTransform="matrix(1 0 0 1 -689.7813 0)" gradientUnits="userSpaceOnUse">
			<stop  offset="0" style="stop-color:#FFCE06"/>
			<stop  offset="0.9946" style="stop-color:#FAA21B"/>
		</radialGradient>
		<polygon fill="url(#SVGID_16_)" points="370.673,575.801 370.673,559.127 340.511,474.854 313.684,444.238 328.842,489.709 		"/>
	</g>
</g>
<g>
	<radialGradient id="SVGID_17_" cx="311.2754" cy="422.0674" r="124.7112" gradientUnits="userSpaceOnUse">
		<stop  offset="0.3495" style="stop-color:#2BC4F3"/>
		<stop  offset="0.8871" style="stop-color:#0095DA"/>
	</radialGradient>
	<path fill="url(#SVGID_17_)" d="M325.098,398.99l82.252-81.994c-1.093-3.032-0.479-6.546,1.89-9.042
		c3.351-3.514,8.917-3.652,12.431-0.311c3.517,3.351,3.654,8.917,0.311,12.429c-2.336,2.457-5.756,3.261-8.807,2.378l-82.313,81.846
		"/>
	<radialGradient id="SVGID_18_" cx="311.2754" cy="422.0684" r="124.7122" gradientUnits="userSpaceOnUse">
		<stop  offset="0.3495" style="stop-color:#2BC4F3"/>
		<stop  offset="0.8871" style="stop-color:#0095DA"/>
	</radialGradient>
	<path fill="url(#SVGID_18_)" d="M288.846,435.748l-84.429,84.314c-3.032-1.092-6.546-0.478-9.042,1.891
		c-3.514,3.352-3.652,8.917-0.311,12.431c3.351,3.517,8.917,3.653,12.43,0.311c2.457-2.337,3.26-5.755,2.378-8.806l84.241-84.637"/>
	<radialGradient id="SVGID_19_" cx="311.2744" cy="422.0674" r="124.7066" gradientUnits="userSpaceOnUse">
		<stop  offset="0.3495" style="stop-color:#2BC4F3"/>
		<stop  offset="0.8871" style="stop-color:#0095DA"/>
	</radialGradient>
	<path fill="url(#SVGID_19_)" d="M286.344,404.594l-81.994-82.251c-3.031,1.093-6.546,0.479-9.041-1.89
		c-3.514-3.351-3.652-8.917-0.311-12.431c3.351-3.517,8.916-3.654,12.43-0.311c2.457,2.336,3.26,5.756,2.377,8.807l81.847,82.312"/>
	<radialGradient id="SVGID_20_" cx="311.2744" cy="422.0684" r="124.7129" gradientUnits="userSpaceOnUse">
		<stop  offset="0.3495" style="stop-color:#2BC4F3"/>
		<stop  offset="0.8871" style="stop-color:#0095DA"/>
	</radialGradient>
	<path fill="url(#SVGID_20_)" d="M325.166,443.281l82.251,81.994c-1.093,3.031-0.478,6.545,1.89,9.041
		c3.352,3.514,8.918,3.652,12.432,0.311c3.516-3.35,3.653-8.916,0.311-12.43c-2.337-2.457-5.756-3.26-8.807-2.377l-83.148-82.859"/>
	<radialGradient id="SVGID_21_" cx="311.2754" cy="422.0684" r="124.7115" gradientUnits="userSpaceOnUse">
		<stop  offset="0.3495" style="stop-color:#2BC4F3"/>
		<stop  offset="0.8871" style="stop-color:#0095DA"/>
	</radialGradient>
	<polyline fill="url(#SVGID_21_)" points="305.068,393.475 305.239,284.592 299.607,276.021 309.221,258.261 318.834,276.18 
		313.206,284.344 312.896,393.153 	"/>
	<radialGradient id="SVGID_22_" cx="311.2754" cy="422.0684" r="124.7123" gradientUnits="userSpaceOnUse">
		<stop  offset="0.3495" style="stop-color:#2BC4F3"/>
		<stop  offset="0.8871" style="stop-color:#0095DA"/>
	</radialGradient>
	<path fill="url(#SVGID_22_)" d="M305.683,447.292l0.182,116.139c-2.916,1.371-4.967,4.291-5.057,7.729
		c-0.115,4.854,3.723,8.888,8.57,9.01c4.855,0.117,8.889-3.722,9.008-8.569c0.086-3.39-1.764-6.375-4.545-7.908l-0.33-116.078"/>
	<radialGradient id="SVGID_23_" cx="311.2754" cy="422.0693" r="124.7114" gradientUnits="userSpaceOnUse">
		<stop  offset="0.3495" style="stop-color:#2BC4F3"/>
		<stop  offset="0.8871" style="stop-color:#0095DA"/>
	</radialGradient>
	<path fill="url(#SVGID_23_)" d="M330.094,436.256l34.141,14.713l4.809,11.831l-17.152,44.188c-3.215,0.206-6.193,2.178-7.533,5.34
		c-1.887,4.475,0.207,9.636,4.678,11.522c4.473,1.885,9.631-0.208,11.521-4.677c1.316-3.124,0.688-6.576-1.334-9.02l18.461-47.295
		l-7.297-17.958l-37.344-15.646"/>
	<radialGradient id="SVGID_24_" cx="311.2754" cy="422.0693" r="124.7108" gradientUnits="userSpaceOnUse">
		<stop  offset="0.3495" style="stop-color:#2BC4F3"/>
		<stop  offset="0.8871" style="stop-color:#0095DA"/>
	</radialGradient>
	<path fill="url(#SVGID_24_)" d="M287.195,436.256l-34.141,14.713l-4.809,11.831l17.152,44.188c3.215,0.206,6.193,2.178,7.533,5.34
		c1.887,4.475-0.207,9.636-4.678,11.522c-4.473,1.885-9.631-0.208-11.521-4.677c-1.316-3.124-0.688-6.576,1.334-9.02l-18.461-47.295
		l7.297-17.958l37.344-15.646"/>
	<radialGradient id="SVGID_25_" cx="311.2754" cy="422.0684" r="124.7117" gradientUnits="userSpaceOnUse">
		<stop  offset="0.3495" style="stop-color:#2BC4F3"/>
		<stop  offset="0.8871" style="stop-color:#0095DA"/>
	</radialGradient>
	<path fill="url(#SVGID_25_)" d="M330.094,403.433l34.141-14.713l4.809-11.831L351.891,332.7c-3.215-0.206-6.193-2.178-7.533-5.34
		c-1.887-4.475,0.207-9.636,4.678-11.522c4.473-1.885,9.631,0.208,11.521,4.677c1.316,3.124,0.688,6.576-1.334,9.02l18.461,47.295
		l-7.297,17.958l-37.344,15.646"/>
	<radialGradient id="SVGID_26_" cx="311.2754" cy="422.0684" r="124.7116" gradientUnits="userSpaceOnUse">
		<stop  offset="0.3495" style="stop-color:#2BC4F3"/>
		<stop  offset="0.8871" style="stop-color:#0095DA"/>
	</radialGradient>
	<path fill="url(#SVGID_26_)" d="M291.645,404.46l-34.141-14.713l-4.809-11.831l17.152-44.188c3.215-0.206,6.193-2.178,7.533-5.34
		c1.887-4.475-0.207-9.636-4.678-11.522c-4.473-1.885-9.631,0.208-11.521,4.677c-1.316,3.124-0.688,6.576,1.334,9.02l-18.461,47.295
		l7.297,17.958l37.344,15.646"/>
</g>
<radialGradient id="SVGID_27_" cx="308.5967" cy="420.501" r="27.8848" gradientUnits="userSpaceOnUse">
	<stop  offset="0.6828" style="stop-color:#2BC4F3"/>
	<stop  offset="1" style="stop-color:#0095DA"/>
</radialGradient>
<path fill="url(#SVGID_27_)" d="M303.05,448.385h11.094l10.247-4.246l7.844-7.842l4.248-10.249v-11.094l-4.248-10.247l-7.844-7.844
	l-10.247-4.246H303.05l-10.247,4.246l-7.844,7.844l-4.248,10.247v11.094l4.248,10.249l7.844,7.842L303.05,448.385z M308.597,440.107
	c-10.828,0-19.606-8.776-19.606-19.606c0-10.828,8.778-19.606,19.606-19.606s19.606,8.778,19.606,19.606
	C328.203,431.331,319.425,440.107,308.597,440.107z"/>
<radialGradient id="SVGID_28_" cx="308.8564" cy="420.1729" r="13.6479" gradientUnits="userSpaceOnUse">
	<stop  offset="0" style="stop-color:#AE62A7"/>
	<stop  offset="0.9946" style="stop-color:#5599D3"/>
</radialGradient>
<path fill="url(#SVGID_28_)" d="M304.731,433.658c0.045-0.025,0.088-0.055,0.128-0.086c0.121-0.096,0.219-0.213,0.29-0.344
	c0.07-0.131,0.116-0.277,0.13-0.428l3.563-1.557l2.501,1.1l1.061,0.467c0.014,0.148,0.058,0.293,0.129,0.426
	c0.016,0.029,0.034,0.057,0.053,0.085c0.009,0.015,0.018,0.028,0.027,0.042c0.004,0.006,0.008,0.01,0.012,0.016
	c0.113,0.15,0.267,0.273,0.453,0.354c0.005,0.002,0.01,0.004,0.014,0.007c0.051,0.021,0.103,0.036,0.154,0.049
	c0.402,0.1,0.821-0.036,1.093-0.335c0.1,0.004,0.199-0.003,0.295-0.023c0.342-0.074,0.644-0.307,0.791-0.652
	c0.021-0.051,0.038-0.1,0.051-0.15c0.066-0.254,0.04-0.514-0.062-0.742c-0.041-0.09-0.094-0.176-0.158-0.253l1.42-3.622l3.625-1.41
	c0.038,0.033,0.079,0.063,0.121,0.088c0.116,0.072,0.245,0.122,0.38,0.148c0.156,0.029,0.32,0.028,0.482-0.012
	c0.054-0.014,0.107-0.031,0.16-0.054c0.071-0.03,0.137-0.065,0.198-0.108c0.322-0.221,0.5-0.593,0.481-0.977
	c0.148-0.133,0.258-0.303,0.317-0.492c0.075-0.237,0.072-0.502-0.029-0.752c-0.02-0.051-0.043-0.098-0.069-0.143
	c-0.184-0.316-0.508-0.516-0.857-0.549l-1.559-3.563l1.566-3.562c0.101-0.009,0.198-0.031,0.292-0.066
	c0.133-0.051,0.254-0.126,0.36-0.224c0.005-0.005,0.012-0.009,0.018-0.015c0.003-0.004,0.007-0.008,0.011-0.013
	c0.067-0.067,0.129-0.143,0.178-0.228c0.027-0.045,0.051-0.094,0.071-0.143c0.058-0.143,0.084-0.29,0.082-0.436
	c-0.004-0.307-0.139-0.604-0.368-0.811c0.012-0.244-0.055-0.482-0.188-0.681c-0.116-0.174-0.282-0.317-0.489-0.405
	c-0.1-0.042-0.201-0.068-0.303-0.08c-0.305-0.037-0.609,0.057-0.842,0.248l-3.622-1.419l-1.41-3.626
	c0.032-0.038,0.062-0.078,0.088-0.121c0.186-0.297,0.229-0.675,0.083-1.021c-0.008-0.019-0.017-0.035-0.025-0.053
	c-0.181-0.373-0.543-0.602-0.934-0.627c-0.042-0.002-0.083-0.002-0.125,0c-0.256-0.285-0.646-0.422-1.029-0.352
	c-0.073,0.014-0.146,0.033-0.217,0.063c-0.05,0.021-0.097,0.043-0.143,0.07l0,0l0,0c-0.315,0.184-0.514,0.508-0.548,0.857
	l-0.342,0.149l-3.223,1.409l-3.561-1.566c-0.005-0.051-0.012-0.1-0.023-0.148c-0.079-0.341-0.316-0.639-0.664-0.781
	c-0.079-0.032-0.159-0.053-0.24-0.067c-0.375-0.062-0.755,0.075-1.006,0.353c-0.002,0.001-0.003,0.001-0.004,0
	c-0.453-0.021-0.895,0.234-1.083,0.678c-0.015,0.035-0.025,0.072-0.037,0.109c-0.034,0.113-0.052,0.23-0.05,0.344l0,0
	c0.005,0.254,0.096,0.496,0.256,0.691l-0.588,1.498l-0.185,0.473l-0.647,1.65l-3.625,1.41c-0.039-0.032-0.079-0.062-0.121-0.088
	c-0.297-0.186-0.675-0.229-1.021-0.083c-0.071,0.03-0.136,0.065-0.195,0.106c-0.324,0.221-0.504,0.594-0.485,0.979
	c-0.338,0.304-0.468,0.799-0.288,1.246c0.07,0.173,0.182,0.316,0.314,0.43c0.174,0.146,0.388,0.238,0.613,0.26l1.558,3.564
	l-1.566,3.561c-0.05,0.005-0.1,0.014-0.148,0.023c-0.341,0.08-0.639,0.316-0.78,0.665c-0.029,0.071-0.051,0.144-0.064,0.216
	c-0.071,0.383,0.065,0.773,0.35,1.03c-0.023,0.454,0.234,0.897,0.678,1.085c0.049,0.021,0.1,0.039,0.149,0.052h0.001
	c0.1,0.026,0.202,0.039,0.304,0.038l0,0c0.252-0.006,0.495-0.098,0.689-0.257l3.622,1.419l0.784,2.016l0.626,1.609
	c-0.05,0.06-0.091,0.125-0.127,0.193c-0.011,0.02-0.022,0.039-0.032,0.061c-0.122,0.271-0.136,0.592-0.012,0.891
	c0.03,0.07,0.066,0.137,0.108,0.197c0.22,0.322,0.593,0.5,0.977,0.48c0.304,0.339,0.798,0.47,1.245,0.29
	C304.639,433.709,304.686,433.686,304.731,433.658z M304.878,431.766c-0.042-0.101-0.097-0.191-0.163-0.272
	c-0.196-0.239-0.485-0.386-0.791-0.406l-0.893-2.308l0.36,0.142l0,0l0,0l0.659-0.267l1.54-0.624l0.92,2.188l1.065,0.469
	l-2.664,1.171C304.902,431.826,304.891,431.795,304.878,431.766z M318.5,419.475l-0.869,1.966l-1.492,0.628l-3.741-1.492
	l0.002-0.908l0.647-0.258l3.587-1.422l1.491,0.632L318.5,419.475z M313.086,431.378l-2.262-1.001l0.354-0.154l0.926-2.185
	l2.197,0.896l1.085-0.423l-1.057,2.713c-0.028-0.015-0.058-0.029-0.089-0.041C313.837,431.02,313.394,431.109,313.086,431.378z
	 M315.181,412.859l0.776,2.005l-0.567,1.392l-0.044,0.109l-3.761,1.613l-0.607-0.607l0.75-1.734l1.084-2.508l1.501-0.608
	L315.181,412.859z M303.548,413.072l1.5,0.611l1.619,3.77l-0.604,0.603l-4.25-1.837l-0.561-1.384l-0.048-0.118l0.339-0.868
	L303.548,413.072z M308.865,417.77c1.373,0.002,2.485,1.117,2.483,2.49s-1.116,2.484-2.489,2.482s-2.484-1.115-2.482-2.488
	C306.378,418.881,307.492,417.769,308.865,417.77z M315.056,423.763l0.846,0.366l0.546,1.348l0.062,0.152l-0.339,0.869l-2.005,0.775
	l-1.5-0.611l-1.564-3.644l0.675-0.673L315.056,423.763z M306.688,423.084l-1.787,4.133l-1.501,0.608l-0.869-0.338l-0.774-2.007
	l0.61-1.498l3.652-1.569L306.688,423.084z M307.589,428.947l-0.628-1.492l1.462-3.664l0.97,0.002l1.648,4.158l-0.632,1.49
	l-0.854,0.376L307.589,428.947z M310.123,411.398l0.629,1.493l-1.528,3.829h-0.837l-0.317-0.799l-1.397-3.526l0.632-1.491
	l0.854-0.375l0.509,0.225L310.123,411.398z M305.327,419.775l-0.001,0.898l-4.247,1.684l-1.491-0.631l-0.376-0.854l0.871-1.967
	l1.491-0.629L305.327,419.775z M320.448,424.15c-0.4,0.17-0.651,0.547-0.678,0.955l-2.307,0.893l0.141-0.36l-0.89-2.198l2.187-0.921
	l0.468-1.065l1.172,2.664C320.51,424.127,320.479,424.138,320.448,424.15z M303.473,409.164c0.26,0.105,0.536,0.104,0.783,0.019
	c0.136-0.047,0.262-0.118,0.371-0.214l2.262,1l-0.354,0.154l-0.925,2.186l-2.197-0.896l-1.085,0.422l1.057-2.712
	C303.412,409.137,303.441,409.152,303.473,409.164z M297.847,425.558c0.074-0.185,0.095-0.374,0.07-0.558
	c-0.026-0.221-0.118-0.43-0.266-0.598l1-2.262l0.155,0.354l2.184,0.925l-0.895,2.197l0.422,1.084l-2.712-1.055
	C297.82,425.617,297.835,425.588,297.847,425.558z M319.866,414.789c-0.164,0.404-0.073,0.848,0.195,1.155l-1,2.261l-0.155-0.354
	l-2.185-0.925l0.896-2.198l-0.422-1.084l2.712,1.057C319.893,414.729,319.879,414.758,319.866,414.789z M312.834,408.582
	c0.17,0.4,0.548,0.65,0.955,0.677l0.893,2.308l-0.36-0.142l-2.199,0.892l-0.921-2.188l-1.065-0.469l2.665-1.171
	C312.811,408.52,312.821,408.551,312.834,408.582z M297.265,416.195c0.178-0.075,0.323-0.193,0.435-0.334
	c0.143-0.178,0.229-0.393,0.244-0.621l2.307-0.891l-0.142,0.359l0.891,2.199l-2.188,0.92l-0.469,1.066l-1.17-2.666
	C297.203,416.219,297.234,416.208,297.265,416.195z"/>
</svg>
